# xmcd CD database file
#
# Track frame offsets:
#	150
#	19435
#	32531
#	47555
#	61725
#	75456
#	92622
#	107602
#	124597
#	139036
#
# Disc length: 2168 seconds
#
# Revision: 1
# Processed by: cddbd v1.5.2PL0 Copyright (c) Steve Scherf et al.
# Submitted via: jetAudio 5
#
DISCID=7208760a
DTITLE=Kenny Meeks - Blue Chapel
DYEAR=1900
DGENRE=
TTITLE0=We're Gonna' Rise
TTITLE1=Lifted Up
TTITLE2=Seven Times Seventy
TTITLE3=The Father's Love
TTITLE4=The Lord's Prayer
TTITLE5=Jesus Said To Peter
TTITLE6=All To The Glory Of God
TTITLE7=Lonely Road
TTITLE8=I Wanna' Be Ready
TTITLE9=Shining As Stars
EXTD=
EXTT0=
EXTT1=
EXTT2=
EXTT3=
EXTT4=
EXTT5=
EXTT6=
EXTT7=
EXTT8=
EXTT9=
PLAYORDER=
